<svg width="160" height="46" viewBox="0 0 160 46" fill="none" xmlns="http://www.w3.org/2000/svg">
<path d="M77.795 9.72C80.195 9.93 82.28 10.56 84.05 11.61C85.85 12.66 87.245 14.07 88.235 15.84C89.225 17.61 89.72 19.71 89.72 22.14C89.72 24.57 89.24 26.685 88.28 28.485C87.32 30.255 85.955 31.665 84.185 32.715C82.415 33.735 80.285 34.35 77.795 34.56V45H73.925V34.56C71.555 34.35 69.47 33.735 67.67 32.715C65.87 31.665 64.475 30.255 63.485 28.485C62.495 26.685 62 24.57 62 22.14C62 19.68 62.48 17.565 63.44 15.795C64.4 13.995 65.78 12.585 67.58 11.565C69.38 10.515 71.54 9.9 74.06 9.72V0H77.795V9.72ZM74.06 13.005C72.23 13.185 70.73 13.65 69.56 14.4C68.39 15.15 67.52 16.17 66.95 17.46C66.41 18.75 66.14 20.31 66.14 22.14C66.14 23.94 66.41 25.5 66.95 26.82C67.52 28.11 68.39 29.145 69.56 29.925C70.73 30.675 72.23 31.14 74.06 31.32V13.005ZM77.795 31.32C79.595 31.11 81.065 30.63 82.205 29.88C83.375 29.13 84.23 28.11 84.77 26.82C85.34 25.5 85.625 23.94 85.625 22.14C85.625 20.34 85.34 18.795 84.77 17.505C84.2 16.215 83.33 15.195 82.16 14.445C81.02 13.695 79.565 13.23 77.795 13.05V31.32Z" fill="white"/>
<path d="M44.2 28.19H41.38V23.3H36.55V20.6H41.38V15.71H44.2V20.6H49.03V23.3H44.2V28.19Z" fill="white"/>
<path d="M108.2 28.19H105.38V23.3H100.55V20.6H105.38V15.71H108.2V20.6H113.03V23.3H108.2V28.19Z" fill="white"/>
<path d="M140.47 22.8839C140.47 18.724 140.496 14.5556 140.462 10.3956C140.437 7.72922 141.247 5.36657 142.825 3.24862C144.225 1.3585 146.166 0.438759 148.436 0.101238C150.191 -0.160341 151.845 0.05061 153.279 1.15599C154.427 2.04198 155.169 3.19799 155.144 4.71684C155.127 5.75472 154.511 6.48883 153.524 6.69978C152.663 6.87697 151.718 6.41288 151.339 5.62815C150.917 4.75059 151.136 3.76334 151.921 3.12205C152.098 2.97861 152.275 2.85204 152.461 2.71703C152.773 2.48076 152.798 2.20231 152.537 1.92385C152.36 1.72978 152.157 1.51039 151.929 1.41757C150.208 0.793157 148.529 0.776281 147.027 1.97448C146.301 2.54827 145.93 3.39207 145.626 4.24431C145.061 5.86441 144.774 7.54358 144.774 9.24806C144.757 17.838 144.757 26.4363 144.74 35.0262C144.74 35.9966 144.723 36.9839 144.529 37.9205C143.77 41.5151 141.652 43.844 138.007 44.6709C136.775 44.9494 135.534 45.135 134.285 44.8734C132.632 44.5275 131.383 43.5402 130.429 42.1986C129.822 41.3463 130.049 40.1987 130.817 39.5237C131.585 38.8487 132.75 38.8065 133.543 39.4224C134.37 40.0637 134.64 41.1944 134.167 42.1057C133.99 42.4433 133.754 42.7386 133.56 43.0677C133.298 43.5233 133.391 43.7933 133.897 43.9115C135.365 44.249 136.808 44.1984 138.133 43.3799C138.901 42.9073 139.306 42.1479 139.627 41.3379C140.251 39.7853 140.445 38.1483 140.454 36.5029C140.487 31.9717 140.47 27.4236 140.47 22.8839Z" fill="white"/>
<path d="M134.463 15.0618C134.227 15.0534 134.075 15.0365 133.923 15.0365C131.493 15.0281 129.054 15.0196 126.624 15.0112C126.067 15.0112 126.008 14.9606 126 14.4205C125.991 13.6611 126 12.9017 126 12.1423C126 11.6529 126.092 11.5601 126.565 11.5601C130.505 11.5601 134.438 11.5601 138.378 11.5601C138.775 11.5601 138.943 11.7204 138.943 12.1085C138.935 13.2477 138.935 14.3868 138.935 15.5259C138.935 15.8635 138.775 16.0744 138.505 16.2432C136.741 17.3654 135.653 18.9518 135.163 20.9685C134.429 23.9808 135.805 27.3729 138.437 28.9846C138.792 29.204 138.943 29.4656 138.935 29.879C138.918 30.9338 138.927 31.9885 138.927 33.0433C138.927 33.5917 138.859 33.6508 138.328 33.6508C135.779 33.6424 133.239 33.6424 130.691 33.6339C129.299 33.6339 127.907 33.6086 126.514 33.6171C126.135 33.6171 125.983 33.4905 125.991 33.1023C126.008 32.3598 125.991 31.6088 125.991 30.8663C125.991 30.3178 126.084 30.225 126.632 30.225C129.054 30.225 131.467 30.225 133.889 30.225C134.041 30.225 134.193 30.225 134.446 30.225C134.159 29.8368 133.923 29.5246 133.687 29.204C132.784 27.9805 132.126 26.6388 131.83 25.1368C131.737 24.6728 131.51 24.5209 131.046 24.5209C129.527 24.5293 128.008 24.504 126.489 24.504C126.151 24.504 125.991 24.3859 125.991 24.0399C126 23.2383 126 22.4367 125.983 21.6351C125.974 21.23 126.168 21.095 126.556 21.095C128.033 21.1035 129.51 21.1035 130.986 21.095C131.569 21.095 131.653 21.036 131.746 20.4791C132.092 18.513 132.952 16.8085 134.277 15.3234C134.345 15.2981 134.37 15.2222 134.463 15.0618Z" fill="white"/>
<path d="M150.715 15.0703C150.782 15.2137 150.816 15.3066 150.866 15.3741C152.166 16.8845 153.052 18.5974 153.373 20.5803C153.44 20.9853 153.634 21.1372 154.056 21.1372C155.533 21.1204 157.009 21.1288 158.486 21.1288C159.06 21.1288 159.119 21.1963 159.127 21.7532C159.127 22.5295 159.119 23.2974 159.127 24.0737C159.136 24.4281 158.958 24.5378 158.629 24.5378C157.094 24.5378 155.566 24.5546 154.031 24.5378C153.617 24.5378 153.398 24.6812 153.322 25.0778C152.942 26.951 152.056 28.5796 150.807 30.014C150.774 30.0562 150.757 30.1069 150.706 30.2166C150.892 30.225 151.035 30.2419 151.179 30.2419C153.567 30.2419 155.963 30.2419 158.351 30.2419C159.068 30.2419 159.127 30.2925 159.127 30.9928C159.127 31.727 159.127 32.4526 159.119 33.1867C159.119 33.4568 159.051 33.634 158.714 33.634C155.659 33.6171 152.613 33.6086 149.559 33.6086C148.605 33.6086 147.643 33.6002 146.69 33.6255C146.327 33.634 146.183 33.5158 146.192 33.1445C146.209 32.0307 146.2 30.9253 146.192 29.8115C146.192 29.4656 146.31 29.2293 146.605 29.0437C151.314 26.0313 151.339 19.3231 146.673 16.2769C146.344 16.0575 146.2 15.8044 146.209 15.4078C146.226 14.3531 146.209 13.2983 146.217 12.2436C146.217 11.6866 146.301 11.5938 146.841 11.5938C150.748 11.5854 154.655 11.5854 158.57 11.5854C159.051 11.5854 159.127 11.6698 159.136 12.1592C159.144 12.9355 159.144 13.7033 159.136 14.4796C159.136 14.9775 159.085 15.0281 158.562 15.0281C156.132 15.0365 153.693 15.0365 151.263 15.045C151.103 15.0365 150.942 15.0534 150.715 15.0703Z" fill="white"/>
<path d="M12.1412 18.367C12.1814 17.985 12.235 17.6231 12.2484 17.2613C12.3088 15.1569 12.2216 13.0459 12.4495 10.9482C12.6304 9.28622 12.5567 7.6242 13.0795 6.00908C13.5553 4.55481 14.393 3.24798 15.472 2.169C16.7386 0.89568 18.3738 0.419858 20.1162 0.252315C21.3762 0.131685 22.5758 0.292526 23.648 1.01631C24.8141 1.80711 25.5178 2.87939 25.5245 4.33366C25.5245 5.3054 24.7337 6.10961 23.762 6.02919C23.2862 5.98898 22.7969 5.82144 22.3747 5.60698C21.5772 5.19818 21.6241 3.95166 22.1134 3.47584C22.2943 3.29489 22.482 3.12065 22.6763 2.9531C23.1052 2.57111 23.132 2.00816 22.7232 1.59936C22.4551 1.32459 22.1469 1.07663 21.7448 1.07663C21.0545 1.08333 20.3575 1.04312 19.6873 1.17045C18.5011 1.39831 17.8042 2.24942 17.3417 3.315C16.7989 4.55481 16.4906 5.86835 16.4437 7.20869C16.3566 9.54759 16.3767 11.8932 16.3566 14.2388C16.3499 15.2574 16.3566 16.2694 16.3633 17.2881C16.37 18.2866 16.4906 18.3938 17.4892 18.3871C18.414 18.3804 19.3456 18.4005 20.2704 18.3871C20.5854 18.3804 20.7328 18.5011 20.7328 18.8026C20.7395 19.513 20.7395 20.2301 20.7328 20.9405C20.7328 21.2756 20.4915 21.3359 20.2235 21.3426C19.2651 21.356 18.3068 21.3694 17.3417 21.3761C16.3767 21.3828 16.3767 21.3761 16.3633 22.3345C16.3566 22.8505 16.3499 23.3598 16.3633 23.8758C16.3767 24.3517 16.4705 24.4455 16.9463 24.4455C18.0186 24.4522 19.0909 24.4522 20.1632 24.4589C20.6256 24.4589 20.6993 24.5058 20.7261 24.9682C20.7596 25.6384 20.7328 26.3086 20.7462 26.972C20.7529 27.3339 20.5519 27.4747 20.2302 27.4948C19.8549 27.5216 19.4729 27.5417 19.0909 27.5484C18.3738 27.5618 17.6634 27.5551 16.9463 27.5685C16.5308 27.5752 16.4437 27.6556 16.4169 28.0845C16.3834 28.6877 16.3633 29.2908 16.3633 29.894C16.3633 32.186 16.3834 34.4712 16.3834 36.7632C16.3834 38.2845 16.2226 39.7723 15.5256 41.1596C14.6879 42.8283 13.4614 44.0748 11.7257 44.8053C10.2982 45.4084 8.82387 45.7636 7.27577 45.7837C6.08957 45.7971 5.08431 45.3481 4.2533 44.497C3.91821 44.1552 3.56972 43.8201 3.26815 43.4448C2.79903 42.8618 2.85264 42.0777 3.33516 41.508C3.4759 41.3405 3.58983 41.1461 3.72386 40.9652C4.13937 40.4224 4.6688 40.2213 5.36578 40.1811C6.19009 40.1275 6.92728 40.7508 7.13503 41.5214C7.30258 42.1514 7.13503 42.7076 6.76644 43.2304C6.6257 43.4314 6.49167 43.6392 6.38444 43.8536C6.25711 44.1083 6.35764 44.3027 6.6056 44.43C7.7851 45.0532 10.1441 44.6377 10.9416 43.5856C11.4576 42.9087 11.6855 42.071 11.8597 41.2333C12.1613 39.779 12.1613 38.3113 12.1613 36.8302C12.1613 34.3372 12.1948 31.8509 12.1948 29.3578C12.1948 28.949 12.1345 28.5335 12.0809 28.1247C12.0273 27.7494 11.8061 27.5618 11.4241 27.5551C10.439 27.535 9.46053 27.5283 8.47538 27.5082C8.30783 27.5082 8.14029 27.4814 7.97945 27.4479C7.7717 27.4009 7.65107 27.2669 7.65777 27.0391C7.67787 26.5632 7.67117 26.0807 7.71808 25.6049C7.7851 24.928 8.37485 24.4388 9.05172 24.4321C9.93635 24.4321 10.8143 24.4254 11.6989 24.412C12.1747 24.4053 12.2082 24.3718 12.2149 23.8892C12.2216 23.2861 12.2283 22.6829 12.2149 22.0798C12.2015 21.4967 12.0809 21.3828 11.5045 21.3694C10.7003 21.356 9.89614 21.3627 9.09193 21.3493C8.85737 21.3426 8.62281 21.3292 8.39496 21.2689C8.1872 21.2153 8.05317 21.0946 8.14699 20.8199C8.20731 20.6523 8.1805 20.4446 8.1872 20.2569C8.20731 19.7476 8.22071 19.2316 8.25422 18.7222C8.27432 18.4408 8.42846 18.3335 8.73004 18.3402C9.84923 18.3737 10.9885 18.367 12.1412 18.367Z" fill="white"/>
<path d="M11.8537 9.0249C11.8671 9.05841 11.9006 9.09862 11.9006 9.13883C11.9073 9.99665 11.9274 10.8545 11.8872 11.7123C11.8805 11.853 11.6392 12.034 11.465 12.1077C10.8484 12.3691 10.2117 12.5768 9.60189 12.8449C8.24144 13.4413 7.08875 14.3327 6.09689 15.425C4.57561 17.0938 3.60386 19.044 3.25537 21.2756C2.75274 24.5126 3.48323 27.4546 5.47363 30.075C6.55931 31.5024 7.90635 32.6216 9.54157 33.3722C10.1849 33.6671 10.8685 33.8949 11.5387 34.1362C11.8068 34.23 11.9475 34.3842 11.9475 34.6723C11.9475 35.4229 11.9408 36.1668 11.9475 36.9174C11.9475 37.1654 11.847 37.3396 11.599 37.3731C11.3041 37.4133 10.9958 37.4804 10.7077 37.4267C9.29361 37.1587 7.98007 36.589 6.76036 35.8384C6.02988 35.3894 5.3329 34.8801 4.66943 34.3373C4.22712 33.9754 3.83842 33.5331 3.47652 33.0773C0.829349 29.7466 -0.477484 25.3235 0.159178 21.0813C0.655105 17.7907 2.08257 14.9693 4.46838 12.6572C5.58756 11.5716 6.87429 10.7137 8.30176 10.057C9.42764 9.53423 10.587 9.17234 11.8537 9.0249Z" fill="white"/>
<path d="M23.233 15.626C22.8577 15.6662 22.5964 15.5657 22.3752 15.2909C21.752 14.5336 20.9746 13.964 20.1637 13.4278C19.212 12.8046 18.1867 12.3623 17.1144 12.0205C16.9066 11.9535 16.7793 11.8462 16.7793 11.6251C16.786 10.9817 16.7659 10.3316 16.8195 9.68827C16.8664 9.07842 17.0876 8.95779 17.684 9.06502C19.1651 9.31968 20.5121 9.91613 21.7989 10.6466C22.1876 10.8678 22.5629 11.109 22.9181 11.3771C23.0655 11.4843 23.2263 11.6921 23.2263 11.8529C23.2464 13.1061 23.233 14.3527 23.233 15.626Z" fill="white"/>
<path d="M23.2271 30.6445C23.2338 30.7451 23.2472 30.8389 23.2472 30.9394C23.2539 31.9983 23.2472 33.0639 23.2606 34.1227C23.2673 34.5181 23.1131 34.7862 22.7847 35.0074C21.0423 36.1869 19.1457 36.9911 17.095 37.4334C16.8135 37.4937 16.6929 37.42 16.6929 37.1318C16.6996 36.4616 16.6661 35.7915 16.713 35.1213C16.7465 34.6388 17.0615 34.2836 17.5105 34.1428C18.7503 33.7675 19.9164 33.2381 20.9619 32.4808C21.5583 32.0519 22.0945 31.5426 22.6507 31.06C22.825 30.9126 22.9791 30.7451 23.1466 30.5842C23.1667 30.611 23.1936 30.6311 23.2271 30.6445Z" fill="white"/>
</svg>
