<svg width="160" height="45" viewBox="0 0 160 45" fill="none" xmlns="http://www.w3.org/2000/svg">
<path d="M15.795 9.72C18.195 9.93 20.28 10.56 22.05 11.61C23.85 12.66 25.245 14.07 26.235 15.84C27.225 17.61 27.72 19.71 27.72 22.14C27.72 24.57 27.24 26.685 26.28 28.485C25.32 30.255 23.955 31.665 22.185 32.715C20.415 33.735 18.285 34.35 15.795 34.56V45H11.925V34.56C9.555 34.35 7.47 33.735 5.67 32.715C3.87 31.665 2.475 30.255 1.485 28.485C0.495 26.685 0 24.57 0 22.14C0 19.68 0.48 17.565 1.44 15.795C2.4 13.995 3.78 12.585 5.58 11.565C7.38 10.515 9.54 9.9 12.06 9.72V0H15.795V9.72ZM12.06 13.005C10.23 13.185 8.73 13.65 7.56 14.4C6.39 15.15 5.52 16.17 4.95 17.46C4.41 18.75 4.14 20.31 4.14 22.14C4.14 23.94 4.41 25.5 4.95 26.82C5.52 28.11 6.39 29.145 7.56 29.925C8.73 30.675 10.23 31.14 12.06 31.32V13.005ZM15.795 31.32C17.595 31.11 19.065 30.63 20.205 29.88C21.375 29.13 22.23 28.11 22.77 26.82C23.34 25.5 23.625 23.94 23.625 22.14C23.625 20.34 23.34 18.795 22.77 17.505C22.2 16.215 21.33 15.195 20.16 14.445C19.02 13.695 17.565 13.23 15.795 13.05V31.32Z" fill="white"/>
<path d="M44.2 28.19H41.38V23.3H36.55V20.6H41.38V15.71H44.2V20.6H49.03V23.3H44.2V28.19Z" fill="white"/>
<path d="M113.03 20.09H100.55V17.39H113.03V20.09ZM113.03 26.54H100.55V23.84H113.03V26.54Z" fill="white"/>
<path d="M140.47 22.8839C140.47 18.724 140.496 14.5556 140.462 10.3956C140.437 7.72922 141.247 5.36657 142.825 3.24862C144.225 1.3585 146.166 0.438759 148.436 0.101238C150.191 -0.160341 151.845 0.05061 153.279 1.15599C154.427 2.04198 155.169 3.19799 155.144 4.71684C155.127 5.75472 154.511 6.48883 153.524 6.69978C152.663 6.87697 151.718 6.41288 151.339 5.62815C150.917 4.75059 151.136 3.76334 151.921 3.12205C152.098 2.97861 152.275 2.85204 152.461 2.71703C152.773 2.48076 152.798 2.20231 152.537 1.92385C152.36 1.72978 152.157 1.51039 151.929 1.41757C150.208 0.793157 148.529 0.776281 147.027 1.97448C146.301 2.54827 145.93 3.39207 145.626 4.24431C145.061 5.86441 144.774 7.54358 144.774 9.24806C144.757 17.838 144.757 26.4363 144.74 35.0262C144.74 35.9966 144.723 36.9839 144.529 37.9205C143.77 41.5151 141.652 43.844 138.007 44.6709C136.775 44.9494 135.534 45.135 134.285 44.8734C132.632 44.5275 131.383 43.5402 130.429 42.1986C129.822 41.3463 130.049 40.1987 130.817 39.5237C131.585 38.8487 132.75 38.8065 133.543 39.4224C134.37 40.0637 134.64 41.1944 134.167 42.1057C133.99 42.4433 133.754 42.7386 133.56 43.0677C133.298 43.5233 133.391 43.7933 133.897 43.9115C135.365 44.249 136.808 44.1984 138.133 43.3799C138.901 42.9073 139.306 42.1479 139.627 41.3379C140.251 39.7853 140.445 38.1483 140.454 36.5029C140.487 31.9717 140.47 27.4236 140.47 22.8839Z" fill="white"/>
<path d="M134.463 15.0618C134.227 15.0534 134.075 15.0365 133.923 15.0365C131.493 15.0281 129.054 15.0196 126.624 15.0112C126.067 15.0112 126.008 14.9606 126 14.4205C125.991 13.6611 126 12.9017 126 12.1423C126 11.6529 126.092 11.5601 126.565 11.5601C130.505 11.5601 134.438 11.5601 138.378 11.5601C138.775 11.5601 138.943 11.7204 138.943 12.1085C138.935 13.2477 138.935 14.3868 138.935 15.5259C138.935 15.8635 138.775 16.0744 138.505 16.2432C136.741 17.3654 135.653 18.9518 135.163 20.9685C134.429 23.9808 135.805 27.3729 138.437 28.9846C138.792 29.204 138.943 29.4656 138.935 29.879C138.918 30.9338 138.927 31.9885 138.927 33.0433C138.927 33.5917 138.859 33.6508 138.328 33.6508C135.779 33.6424 133.239 33.6424 130.691 33.6339C129.299 33.6339 127.907 33.6086 126.514 33.6171C126.135 33.6171 125.983 33.4905 125.991 33.1023C126.008 32.3598 125.991 31.6088 125.991 30.8663C125.991 30.3178 126.084 30.225 126.632 30.225C129.054 30.225 131.467 30.225 133.889 30.225C134.041 30.225 134.193 30.225 134.446 30.225C134.159 29.8368 133.923 29.5246 133.687 29.204C132.784 27.9805 132.126 26.6388 131.83 25.1368C131.737 24.6728 131.51 24.5209 131.046 24.5209C129.527 24.5293 128.008 24.504 126.489 24.504C126.151 24.504 125.991 24.3859 125.991 24.0399C126 23.2383 126 22.4367 125.983 21.6351C125.974 21.23 126.168 21.095 126.556 21.095C128.033 21.1035 129.51 21.1035 130.986 21.095C131.569 21.095 131.653 21.036 131.746 20.4791C132.092 18.513 132.952 16.8085 134.277 15.3234C134.345 15.2981 134.37 15.2222 134.463 15.0618Z" fill="white"/>
<path d="M150.715 15.0703C150.782 15.2137 150.816 15.3066 150.866 15.3741C152.166 16.8845 153.052 18.5974 153.373 20.5803C153.44 20.9853 153.634 21.1372 154.056 21.1372C155.533 21.1204 157.009 21.1288 158.486 21.1288C159.06 21.1288 159.119 21.1963 159.127 21.7532C159.127 22.5295 159.119 23.2974 159.127 24.0737C159.136 24.4281 158.958 24.5378 158.629 24.5378C157.094 24.5378 155.566 24.5546 154.031 24.5378C153.617 24.5378 153.398 24.6812 153.322 25.0778C152.942 26.951 152.056 28.5796 150.807 30.014C150.774 30.0562 150.757 30.1069 150.706 30.2166C150.892 30.225 151.035 30.2419 151.179 30.2419C153.567 30.2419 155.963 30.2419 158.351 30.2419C159.068 30.2419 159.127 30.2925 159.127 30.9928C159.127 31.727 159.127 32.4526 159.119 33.1867C159.119 33.4568 159.051 33.634 158.714 33.634C155.659 33.6171 152.613 33.6086 149.559 33.6086C148.605 33.6086 147.643 33.6002 146.69 33.6255C146.327 33.634 146.183 33.5158 146.192 33.1445C146.209 32.0307 146.2 30.9253 146.192 29.8115C146.192 29.4656 146.31 29.2293 146.605 29.0437C151.314 26.0313 151.339 19.3231 146.673 16.2769C146.344 16.0575 146.2 15.8044 146.209 15.4078C146.226 14.3531 146.209 13.2983 146.217 12.2436C146.217 11.6866 146.301 11.5938 146.841 11.5938C150.748 11.5854 154.655 11.5854 158.57 11.5854C159.051 11.5854 159.127 11.6698 159.136 12.1592C159.144 12.9355 159.144 13.7033 159.136 14.4796C159.136 14.9775 159.085 15.0281 158.562 15.0281C156.132 15.0365 153.693 15.0365 151.263 15.045C151.103 15.0365 150.942 15.0534 150.715 15.0703Z" fill="white"/>
<path fill-rule="evenodd" clip-rule="evenodd" d="M74.707 5.49205L88.9905 30.4639C89.0705 30.6038 88.9695 30.7779 88.8084 30.7779H71.3723C71.2975 30.7779 71.2283 30.8177 71.1908 30.8824L68.9881 34.676C68.9072 34.8153 69.007 34.99 69.168 34.9912L96.7668 35.1957C96.9292 35.1969 97.0313 35.0212 96.95 34.8807L79.6985 5.09228C79.6594 5.02482 79.5862 4.98458 79.5083 4.98779L74.8805 5.17822C74.7233 5.18468 74.6288 5.35547 74.707 5.49205ZM96.7911 36.0263L67.8283 35.8555C67.6673 35.8545 67.5673 35.6801 67.6478 35.5407L76.3662 20.4399C76.4036 20.3752 76.4037 20.2954 76.3665 20.2306L74.1824 16.4262C74.1022 16.2865 73.9011 16.2855 73.8195 16.4244L59.8431 40.2234C59.7608 40.3634 59.8619 40.5397 60.0243 40.5395L94.4533 40.4935C94.5282 40.4934 94.5973 40.4534 94.6347 40.3886L96.9716 36.341C97.0521 36.2016 96.9521 36.0273 96.7911 36.0263ZM73.8359 14.936L59.1561 40.1302C59.0736 40.2718 58.868 40.2684 58.7902 40.1242L56.5017 35.8817C56.4672 35.8177 56.4683 35.7404 56.5045 35.6774L73.6812 5.83444C73.7622 5.69374 73.9654 5.69435 74.0455 5.83555L87.6679 29.8391C87.7474 29.9791 87.6459 30.1528 87.4849 30.1525L83.0981 30.1417C83.0234 30.1415 82.9543 30.1015 82.9169 30.0368L74.1989 14.9367C74.1183 14.7971 73.917 14.7967 73.8359 14.936ZM77.0679 21.4502L81.945 29.7413C82.0273 29.8812 81.9264 30.0575 81.7641 30.0575H72.1075C71.946 30.0575 71.8451 29.8828 71.9257 29.7429L76.7052 21.4518C76.7856 21.3125 76.9863 21.3116 77.0679 21.4502Z" fill="white"/>
</svg>
