<svg width="158" height="46" viewBox="0 0 158 46" fill="none" xmlns="http://www.w3.org/2000/svg">
<path d="M75.5205 6.52454C79.1258 6.52454 82.7243 6.52454 86.3296 6.52454C86.5172 6.52454 86.7115 6.55174 86.8992 6.53814C87.2074 6.51094 87.3146 6.65372 87.3146 6.95288C87.3079 7.73478 87.3079 8.51668 87.3214 9.29177C87.3281 9.59773 87.2074 9.71332 86.9059 9.71332C85.063 9.71332 83.2269 9.72692 81.3841 9.73372C80.1578 9.74052 78.9314 9.74052 77.7051 9.74732C77.2293 9.74732 77.1958 9.76771 77.1891 10.2708C77.1757 11.1751 77.1824 12.0794 77.1824 12.9837C77.1824 13.888 77.1824 14.7922 77.1824 15.6965C77.1824 16.2609 77.2025 16.2812 77.7386 16.2812C79.548 16.288 81.3506 16.288 83.1599 16.2948C83.6625 16.2948 83.6893 16.3152 83.696 16.8252C83.7027 17.5391 83.7027 18.253 83.7027 18.9669C83.7027 19.4496 83.6826 19.4972 83.1934 19.504C82.0207 19.5312 80.848 19.5244 79.682 19.5244C78.9918 19.5244 78.3015 19.538 77.6046 19.5244C77.3567 19.5244 77.2226 19.606 77.2159 19.8644C77.2092 20.9046 77.1958 21.9449 77.1958 22.9852C77.1958 23.2503 77.3835 23.2707 77.5979 23.2707C78.7907 23.2707 79.9835 23.2707 81.1763 23.2775C81.8934 23.2775 82.6037 23.2843 83.3207 23.2843C83.5687 23.2843 83.696 23.3659 83.696 23.6311C83.696 24.4674 83.696 25.3037 83.7094 26.1399C83.7094 26.4391 83.5218 26.5003 83.2939 26.5139C82.8181 26.5411 82.3357 26.5615 81.8532 26.5615C80.4459 26.5615 79.0454 26.5547 77.6381 26.5479C77.2695 26.5479 77.2159 26.5955 77.2092 27.0918C77.2025 28.1865 77.2226 29.2879 77.2025 30.3826C77.1757 31.6268 77.2092 32.8778 77.0417 34.1085C76.7871 35.9714 75.802 37.4264 74.2071 38.3851C72.0225 39.6973 69.6905 39.7857 67.3383 38.963C66.1723 38.5551 65.2744 37.746 64.5573 36.6785C63.646 35.3187 63.4047 33.8093 63.512 32.2455C63.579 31.2597 64.162 30.3826 65.3012 30.4574C65.5022 30.471 65.7033 30.4642 65.9043 30.4778C66.4605 30.5254 66.8961 30.9265 66.9899 31.552C67.0703 32.0756 67.1038 32.6059 67.1239 33.1362C67.1909 34.4688 68.042 35.4955 69.3152 35.8491C69.9183 36.019 70.5147 36.0462 71.1178 35.9646C72.6256 35.7675 73.5437 34.7408 73.5638 33.2042C73.5839 31.5384 73.5839 29.8794 73.5906 28.2137C73.5906 27.8193 73.5906 27.425 73.5906 27.0306C73.5906 26.7111 73.4432 26.5615 73.1215 26.5615C72.1096 26.5615 71.091 26.5479 70.0791 26.5411C69.1879 26.5343 68.2966 26.5207 67.4054 26.5275C67.1172 26.5275 66.9832 26.3983 66.9832 26.1263C66.9899 25.3716 67.0033 24.6101 67.0435 23.8554C67.0636 23.5087 67.4054 23.2707 67.8141 23.2707C69.5766 23.2707 71.339 23.2707 73.1014 23.2707C73.5906 23.2707 73.6308 23.2299 73.6375 22.7268C73.6442 21.8429 73.6509 20.959 73.6442 20.0751C73.6375 19.6128 73.5705 19.538 73.1081 19.538C71.4931 19.5244 69.8714 19.5312 68.2564 19.5244C67.1172 19.5176 67.2713 19.4972 67.2713 18.525C67.2713 17.9606 67.2646 17.3963 67.2713 16.8252C67.278 16.3356 67.3451 16.2745 67.8141 16.2745C69.6101 16.2745 71.406 16.2677 73.2019 16.2677C73.6174 16.2677 73.6509 16.2337 73.6509 15.7985C73.6509 14.1123 73.6509 12.4262 73.6576 10.74C73.6576 10.536 73.6844 10.332 73.6844 10.1281C73.6844 9.8765 73.5772 9.74052 73.3024 9.74052C71.741 9.74052 70.1797 9.72692 68.6183 9.72012C67.1373 9.71332 65.6497 9.72012 64.1687 9.70652C63.6996 9.69972 63.6661 9.64533 63.6661 9.16259C63.6661 8.46908 63.6661 7.78237 63.6661 7.08887C63.6661 6.52454 63.6795 6.49735 64.2558 6.49735C66.7889 6.49055 69.3219 6.49735 71.855 6.49735C73.0679 6.51774 74.2942 6.51774 75.5205 6.52454C75.5205 6.51774 75.5205 6.51774 75.5205 6.52454Z" fill="white"/>
<path d="M44.2 28.19H41.38V23.3H36.55V20.6H41.38V15.71H44.2V20.6H49.03V23.3H44.2V28.19Z" fill="white"/>
<path d="M108.2 28.19H105.38V23.3H100.55V20.6H105.38V15.71H108.2V20.6H113.03V23.3H108.2V28.19Z" fill="white"/>
<path d="M140.148 9.09381C140.101 9.53337 140.075 9.96628 140.048 10.3992C140.015 10.8787 139.988 11.3715 139.935 11.8577C139.782 13.2896 139.768 14.7549 139.762 16.1668C139.762 16.3999 139.755 16.6397 139.755 16.8794C138.117 19.7166 136.478 22.5604 134.84 25.3976C133.714 27.3557 132.582 29.3137 131.45 31.2651C130.837 32.3241 130.231 33.3764 129.618 34.4353C129.552 34.5485 129.505 34.6418 129.325 34.6351C129.192 34.6285 129.152 34.5619 129.099 34.4886C128.839 34.1023 128.579 33.716 128.326 33.3297C128.027 32.8769 127.727 32.424 127.42 31.9778C127.227 31.698 127.221 31.4316 127.394 31.1386C128.073 29.9731 128.746 28.8009 129.419 27.6287C130.564 25.644 131.71 23.6593 132.855 21.6747C134.707 18.4712 136.558 15.2743 138.403 12.0709C138.942 11.1384 139.482 10.206 140.021 9.27363C140.041 9.24033 140.061 9.20703 140.081 9.17373C140.101 9.14043 140.128 9.11379 140.148 9.09381Z" fill="white"/>
<path d="M144.164 22.3007C143.845 21.748 143.525 21.1952 143.205 20.6424C142.346 19.1572 141.487 17.672 140.628 16.1802C140.601 16.1269 140.568 16.0736 140.528 16.0336C140.441 15.9404 140.348 15.9337 140.261 16.0336C140.221 16.0802 140.188 16.1335 140.161 16.1802C140.142 16.2135 140.122 16.2534 140.102 16.2867C140.108 14.8215 140.115 13.3496 140.275 11.8911C140.375 10.9786 140.395 10.0729 140.481 9.16711C140.481 9.16711 140.481 9.17377 140.488 9.17377C140.681 9.50012 140.861 9.82646 141.047 10.1595C142.08 11.951 143.105 13.7492 144.138 15.5408C144.131 16.4266 144.138 17.3057 144.144 18.1915L144.164 22.3007Z" fill="white"/>
<path d="M150.552 27.369C150.426 27.3756 150.299 27.3756 150.173 27.3756C149.78 27.3756 149.387 27.3756 148.987 27.3756V27.3889C148.507 27.3889 148.021 27.3823 147.542 27.3889C147.242 27.3956 147.036 27.2624 146.889 27.0093C146.09 25.6307 145.297 24.2521 144.498 22.8734L144.471 18.1781C144.465 17.5121 144.465 16.8128 144.465 16.1068C145.124 17.2523 145.784 18.4045 146.443 19.5501C147.841 21.9876 149.24 24.4252 150.639 26.8628C150.672 26.9161 150.705 26.976 150.732 27.036C150.832 27.2424 150.765 27.3556 150.552 27.369Z" fill="white"/>
<path d="M140.868 9.03385C140.795 8.86069 140.855 8.73415 141.035 8.70751C141.235 8.67421 141.434 8.66755 141.641 8.65423C142.493 8.60095 143.353 8.54101 144.205 8.49438C144.138 10.559 144.145 12.6303 144.132 14.6949C143.546 13.6826 142.96 12.6636 142.374 11.6513C141.901 10.8254 141.421 10.0062 140.942 9.18037C140.922 9.13375 140.895 9.08713 140.868 9.03385Z" fill="white"/>
<path d="M139.662 27.8352L139.669 30.1995C139.669 30.5125 139.669 30.8256 139.662 31.1453H137.664C137.398 31.1453 137.131 31.1519 136.858 31.1386C136.632 31.1319 136.558 31.012 136.672 30.8122C137.171 29.9265 137.671 29.0407 138.177 28.1549C138.31 27.9151 138.543 27.8352 138.803 27.8352C139.096 27.8352 139.382 27.8352 139.662 27.8352Z" fill="white"/>
<path d="M144.143 30.7191C144.143 30.8589 144.143 31.0054 144.143 31.1453H140.001C140.001 30.8323 140.001 30.5126 140.001 30.1996L139.994 27.8419H140.074C141.253 27.8419 142.438 27.8419 143.617 27.8419C143.81 27.8419 143.997 27.8419 144.19 27.8419L144.197 28.9275C144.163 29.5203 144.143 30.1197 144.143 30.7191Z" fill="white"/>
<path d="M157.259 31.1986C154.508 31.192 151.758 31.1853 149 31.1787C148.368 31.1787 147.728 31.1787 147.096 31.1787V31.152H144.478C144.478 31.0122 144.478 30.8656 144.478 30.7258C144.478 30.213 144.491 29.6668 144.531 28.9475V28.9342V28.9276L144.525 27.842C146.403 27.842 148.288 27.8353 150.173 27.8353C150.545 27.8353 150.918 27.8353 151.291 27.8353C151.584 27.8353 151.658 27.7088 151.511 27.4557C151.118 26.7697 150.725 26.0904 150.326 25.4111C149.613 24.1789 148.9 22.9468 148.188 21.7147C147.302 20.1829 146.416 18.6578 145.537 17.1259C145.177 16.5066 144.824 15.8872 144.465 15.2745C144.465 15.2412 144.465 15.2012 144.465 15.1679C144.472 14.5685 144.472 13.9558 144.478 13.363C144.485 11.7846 144.491 10.1529 144.538 8.54114C144.691 8.60108 144.811 8.7143 144.911 8.88746C145.65 10.1795 146.396 11.4649 147.142 12.7503C149.773 17.3124 152.41 21.8679 155.041 26.43C155.867 27.8686 156.699 29.3005 157.525 30.7391C157.725 31.0788 157.652 31.1986 157.259 31.1986Z" fill="white"/>
<path d="M135.54 25.1113C136.939 22.7003 138.337 20.2961 139.736 17.8918C139.736 17.985 139.729 18.0716 139.729 18.1648C139.722 18.3979 139.696 18.6311 139.669 18.8841C139.656 19.004 139.643 19.1239 139.629 19.2438V19.2638V19.2771L139.656 24.685C139.096 25.6574 138.537 26.6298 137.971 27.6021C137.278 28.8076 136.579 30.0064 135.886 31.2119C135.866 31.2452 135.846 31.2785 135.833 31.3118C135.76 31.4916 135.826 31.6048 136.019 31.6115C136.259 31.6248 136.499 31.6182 136.739 31.6182C137.718 31.6182 138.69 31.6182 139.669 31.6182C139.663 32.2842 139.663 32.9502 139.656 33.6029C139.649 34.0691 139.649 34.5419 139.649 35.0148H139.296C136.932 35.0148 134.568 35.0214 132.21 35.0281C131.584 35.0281 130.965 35.0414 130.338 35.0547C130.252 35.0547 130.172 35.1014 130.085 35.108C130.019 35.1147 129.932 35.1213 129.899 35.088C129.866 35.0481 129.859 34.9482 129.886 34.8949C130.025 34.6285 130.172 34.3688 130.325 34.109C132.057 31.1053 133.802 28.1083 135.54 25.1113Z" fill="white"/>
<path d="M142.146 20.3494C141.42 21.6015 140.701 22.8536 139.975 24.1056L139.955 19.2705C139.995 18.8908 140.048 18.5312 140.062 18.1715C140.068 17.8785 140.075 17.5855 140.082 17.2924C140.128 17.2125 140.175 17.1326 140.221 17.0527C140.361 16.8262 140.508 16.8196 140.641 17.046C141.147 17.8985 141.647 18.751 142.153 19.6035C142.299 19.8432 142.293 20.0963 142.146 20.3494Z" fill="white"/>
<path d="M143.69 35.0147C142.451 35.0081 141.219 35.0081 139.98 35.0081C139.987 33.8759 139.994 32.7437 140 31.6115C141.379 31.6115 142.764 31.6115 144.143 31.6115C144.143 32.7437 144.15 33.8825 144.156 35.0147H143.69Z" fill="white"/>
<path d="M157.525 31.9711C157.332 32.3707 157.132 32.7637 156.932 33.1633C156.666 33.6894 156.399 34.2155 156.146 34.7484C156.053 34.9348 155.92 35.0214 155.707 35.0214C153.182 35.0148 150.652 35.0148 148.121 35.0148C146.909 35.0148 145.703 35.0148 144.491 35.0148C144.491 34.775 144.491 34.5286 144.491 34.2888C144.484 33.4097 144.484 32.5039 144.484 31.6048C144.891 31.6048 145.297 31.6048 145.703 31.6048C148.694 31.6048 151.691 31.6048 154.681 31.6048C155.513 31.6048 156.346 31.5981 157.172 31.5981C157.218 31.5981 157.258 31.5981 157.305 31.5981C157.558 31.6181 157.638 31.7447 157.525 31.9711Z" fill="white"/>
<path d="M139.653 25.5774L139.66 27.4156H139.081C138.714 27.4156 138.654 27.309 138.834 26.9893C139.107 26.5231 139.38 26.0503 139.653 25.5774Z" fill="white"/>
<path d="M144.191 27.4223C143.651 27.4223 143.112 27.4223 142.579 27.4223C141.72 27.4223 140.861 27.4223 139.995 27.4223L139.988 25.0114C140.681 23.8192 141.367 22.6271 142.06 21.4349C142.159 21.2618 142.259 21.082 142.359 20.9088C142.512 20.6491 142.659 20.6424 142.812 20.9021C143.265 21.688 143.718 22.4673 144.171 23.2531L144.191 27.4223Z" fill="white"/>
<path d="M146.395 27.3223C146.329 27.4022 146.162 27.4156 146.042 27.4222C145.536 27.4222 145.03 27.4289 144.524 27.4289L144.504 23.8391C145.103 24.8781 145.703 25.917 146.302 26.956C146.369 27.0626 146.495 27.2024 146.395 27.3223Z" fill="white"/>
<path d="M153.254 4.32519C153.254 4.67152 153.155 4.99786 152.981 5.26426C152.955 5.31088 152.921 5.35084 152.888 5.3908C152.855 5.43076 152.822 5.47072 152.782 5.51068C152.742 5.55064 152.708 5.58395 152.668 5.61725C152.655 5.63057 152.642 5.64389 152.622 5.65721C152.575 5.69717 152.529 5.73047 152.475 5.76377C152.362 5.83703 152.242 5.89031 152.116 5.93027C152.062 5.94359 152.016 5.96357 151.962 5.97023C151.856 5.99021 151.743 6.00353 151.629 6.00353C151.583 6.00353 151.543 6.00353 151.496 5.99687C151.023 5.95691 150.537 5.79041 150.118 5.57729C149.325 5.17102 149.372 3.93225 149.858 3.45939C150.044 3.27957 150.231 3.10641 150.417 2.9399C150.431 2.92658 150.444 2.91326 150.457 2.89994C150.497 2.85998 150.53 2.82002 150.564 2.78006C150.584 2.75342 150.604 2.72678 150.624 2.69348C150.65 2.65352 150.67 2.6069 150.69 2.56028C150.697 2.54696 150.704 2.53364 150.71 2.51366C150.724 2.48702 150.73 2.45372 150.737 2.42042C150.804 2.13404 150.717 1.83434 150.471 1.58125C150.457 1.56793 150.437 1.54795 150.417 1.52797C150.404 1.51465 150.384 1.49467 150.364 1.47469C150.337 1.44805 150.304 1.42141 150.277 1.39477C150.264 1.38145 150.244 1.36813 150.231 1.35481C150.224 1.34815 150.211 1.34149 150.204 1.33483C150.191 1.32151 150.178 1.31485 150.158 1.30153C150.144 1.29487 150.131 1.28155 150.124 1.27489L150.118 1.26823C150.104 1.26157 150.091 1.24825 150.078 1.24159C150.051 1.22827 150.031 1.21495 150.004 1.19497C149.984 1.18165 149.964 1.17499 149.944 1.16167C149.811 1.09507 149.665 1.05511 149.505 1.05511H149.498C149.452 1.05511 149.398 1.05511 149.352 1.05511C149.165 1.05511 148.979 1.05511 148.792 1.05511C148.732 1.05511 148.679 1.05511 148.619 1.05511C148.566 1.05511 148.506 1.05511 148.453 1.05511C148.399 1.05511 148.339 1.05511 148.286 1.06177C148.233 1.06177 148.173 1.06843 148.12 1.06843C147.893 1.08175 147.673 1.10839 147.454 1.14835C146.275 1.37479 145.582 2.22062 145.123 3.27957C144.583 4.51168 144.277 5.81705 144.23 7.14906C144.223 7.25562 144.223 7.36218 144.217 7.46874C144.15 9.53336 144.157 11.6046 144.144 13.6692C144.144 13.8224 144.144 13.9756 144.144 14.1355C144.144 14.262 144.144 14.3885 144.144 14.5151C144.137 15.4009 144.144 16.28 144.15 17.1658L144.17 21.275L144.177 22.2274L144.203 26.3966V26.8095L144.21 27.8951C144.177 28.4945 144.157 29.0939 144.157 29.6933C144.157 29.8332 144.157 29.9797 144.157 30.1196C144.157 30.2728 144.157 30.4326 144.157 30.5858C144.157 31.718 144.163 32.8569 144.17 33.9891C144.177 34.8349 144.177 35.6741 144.177 36.5199C144.177 38.0317 144.017 39.5103 143.324 40.8889C142.492 42.5472 141.273 43.786 139.548 44.512C138.129 45.1114 136.664 45.4643 135.126 45.4843H135.073C134.426 45.4843 133.827 45.3445 133.288 45.0714C133.228 45.0448 133.168 45.0115 133.108 44.9782C133.048 44.9449 132.988 44.9116 132.935 44.8716C132.875 44.8316 132.821 44.7983 132.761 44.7584C132.708 44.7184 132.648 44.6785 132.595 44.6318C132.568 44.6119 132.542 44.5919 132.515 44.5652C132.435 44.4986 132.355 44.432 132.275 44.3588C132.222 44.3122 132.169 44.2589 132.122 44.2056C131.789 43.8659 131.443 43.5329 131.143 43.16C130.677 42.5805 130.73 41.8013 131.21 41.2352C131.35 41.0687 131.463 40.8756 131.596 40.6957C132.009 40.1563 132.535 39.9565 133.228 39.9165C133.261 39.9165 133.288 39.9165 133.321 39.9165C133.641 39.9165 133.94 40.0164 134.2 40.1829C134.227 40.2029 134.26 40.2229 134.287 40.2429C134.313 40.2628 134.347 40.2828 134.373 40.3095C134.413 40.3361 134.446 40.3694 134.48 40.4027C134.5 40.416 134.513 40.436 134.533 40.456C134.58 40.5093 134.626 40.5625 134.673 40.6158C134.7 40.6558 134.733 40.6957 134.753 40.7357C134.819 40.8356 134.873 40.9422 134.919 41.0554C134.939 41.102 134.953 41.142 134.966 41.1886C134.973 41.2086 134.979 41.2352 134.986 41.2552C135.152 41.8812 134.986 42.434 134.62 42.9535C134.48 43.1533 134.347 43.3598 134.24 43.5729C134.113 43.826 134.213 44.0191 134.46 44.1457C134.646 44.2456 134.866 44.3188 135.099 44.3654C135.159 44.3788 135.219 44.3854 135.279 44.3987C135.372 44.4121 135.465 44.4187 135.559 44.4254C135.652 44.432 135.752 44.432 135.852 44.432C136.065 44.432 136.278 44.4187 136.491 44.3921C136.564 44.3788 136.631 44.3721 136.704 44.3588C136.777 44.3455 136.844 44.3321 136.917 44.3188C136.991 44.3055 137.057 44.2855 137.124 44.2655C137.81 44.079 138.429 43.746 138.769 43.3065C139.282 42.6338 139.508 41.8013 139.681 40.9688C139.981 39.5236 139.981 38.0584 139.981 36.5932C139.981 35.7207 139.988 34.8549 139.988 33.9824C139.994 32.8502 140.001 31.718 140.008 30.5858C140.008 30.4326 140.008 30.2728 140.008 30.1196C140.008 29.8066 140.008 29.4869 140.008 29.1739L140.001 26.8162V26.4033L139.994 23.9923L139.988 23.0866L139.968 18.2514C140.008 17.8717 140.061 17.5121 140.074 17.1525C140.081 16.8594 140.088 16.5664 140.094 16.2733C140.101 15.9403 140.101 15.6073 140.101 15.2743C140.108 13.8091 140.114 12.3372 140.274 10.8787C140.374 9.96626 140.394 9.06049 140.48 8.15473C140.554 7.42212 140.667 6.68951 140.9 5.97023C141.373 4.525 142.205 3.22629 143.278 2.15402C144.536 0.888608 146.162 0.415744 147.893 0.249243C148.073 0.229262 148.259 0.222602 148.439 0.215942C148.499 0.215942 148.552 0.215942 148.612 0.215942C148.719 0.215942 148.819 0.215942 148.919 0.222602C148.925 0.222602 148.932 0.222602 148.939 0.222602C148.985 0.222602 149.025 0.229262 149.065 0.229262C149.079 0.229262 149.092 0.229262 149.105 0.229262C149.145 0.229262 149.185 0.235922 149.225 0.242582C149.238 0.242582 149.252 0.249243 149.272 0.249243C149.312 0.255903 149.352 0.255902 149.385 0.262563C149.405 0.262563 149.418 0.269223 149.438 0.269223C149.472 0.275883 149.512 0.275883 149.545 0.282543C149.565 0.289203 149.585 0.289203 149.611 0.295863C149.645 0.302523 149.678 0.309183 149.705 0.315843C149.758 0.322503 149.811 0.335823 149.864 0.349143C149.878 0.355804 149.891 0.355803 149.904 0.355803C149.951 0.369124 149.991 0.375784 150.038 0.389104C150.051 0.395764 150.071 0.395764 150.084 0.402424C150.124 0.415744 150.164 0.422404 150.204 0.435724C150.384 0.489005 150.564 0.555605 150.744 0.635526C150.797 0.662166 150.857 0.688806 150.91 0.715446C150.963 0.742087 151.017 0.775387 151.077 0.802027C151.183 0.861968 151.296 0.928568 151.403 1.00183C152.548 1.8077 153.248 2.8733 153.254 4.32519Z" fill="white"/>
<path d="M152.889 6.38979C152.922 6.34983 152.955 6.3032 152.982 6.26324C152.948 6.30987 152.915 6.34983 152.889 6.38979Z" fill="white"/>
<path d="M12.1412 18.367C12.1814 17.985 12.235 17.6231 12.2484 17.2613C12.3088 15.1569 12.2216 13.0459 12.4495 10.9482C12.6304 9.28622 12.5567 7.6242 13.0795 6.00908C13.5553 4.55481 14.393 3.24798 15.472 2.169C16.7386 0.89568 18.3738 0.419858 20.1162 0.252315C21.3762 0.131685 22.5758 0.292526 23.648 1.01631C24.8141 1.80711 25.5178 2.87939 25.5245 4.33366C25.5245 5.3054 24.7337 6.10961 23.762 6.02919C23.2862 5.98898 22.7969 5.82144 22.3747 5.60698C21.5772 5.19818 21.6241 3.95166 22.1134 3.47584C22.2943 3.29489 22.482 3.12065 22.6763 2.9531C23.1052 2.57111 23.132 2.00816 22.7232 1.59936C22.4551 1.32459 22.1469 1.07663 21.7448 1.07663C21.0545 1.08333 20.3575 1.04312 19.6873 1.17045C18.5011 1.39831 17.8042 2.24942 17.3417 3.315C16.7989 4.55481 16.4906 5.86835 16.4437 7.20869C16.3566 9.54759 16.3767 11.8932 16.3566 14.2388C16.3499 15.2574 16.3566 16.2694 16.3633 17.2881C16.37 18.2866 16.4906 18.3938 17.4892 18.3871C18.414 18.3804 19.3456 18.4005 20.2704 18.3871C20.5854 18.3804 20.7328 18.5011 20.7328 18.8026C20.7395 19.513 20.7395 20.2301 20.7328 20.9405C20.7328 21.2756 20.4915 21.3359 20.2235 21.3426C19.2651 21.356 18.3068 21.3694 17.3417 21.3761C16.3767 21.3828 16.3767 21.3761 16.3633 22.3345C16.3566 22.8505 16.3499 23.3598 16.3633 23.8758C16.3767 24.3517 16.4705 24.4455 16.9463 24.4455C18.0186 24.4522 19.0909 24.4522 20.1632 24.4589C20.6256 24.4589 20.6993 24.5058 20.7261 24.9682C20.7596 25.6384 20.7328 26.3086 20.7462 26.972C20.7529 27.3339 20.5519 27.4747 20.2302 27.4948C19.8549 27.5216 19.4729 27.5417 19.0909 27.5484C18.3738 27.5618 17.6634 27.5551 16.9463 27.5685C16.5308 27.5752 16.4437 27.6556 16.4169 28.0845C16.3834 28.6877 16.3633 29.2908 16.3633 29.894C16.3633 32.186 16.3834 34.4712 16.3834 36.7632C16.3834 38.2845 16.2226 39.7723 15.5256 41.1596C14.6879 42.8283 13.4614 44.0748 11.7257 44.8053C10.2982 45.4084 8.82387 45.7636 7.27577 45.7837C6.08957 45.7971 5.08431 45.3481 4.2533 44.497C3.91821 44.1552 3.56972 43.8201 3.26815 43.4448C2.79903 42.8618 2.85264 42.0777 3.33516 41.508C3.4759 41.3405 3.58983 41.1461 3.72386 40.9652C4.13937 40.4224 4.6688 40.2213 5.36578 40.1811C6.19009 40.1275 6.92728 40.7508 7.13503 41.5214C7.30258 42.1514 7.13503 42.7076 6.76644 43.2304C6.6257 43.4314 6.49167 43.6392 6.38444 43.8536C6.25711 44.1083 6.35764 44.3027 6.6056 44.43C7.7851 45.0532 10.1441 44.6377 10.9416 43.5856C11.4576 42.9087 11.6855 42.071 11.8597 41.2333C12.1613 39.779 12.1613 38.3113 12.1613 36.8302C12.1613 34.3372 12.1948 31.8509 12.1948 29.3578C12.1948 28.949 12.1345 28.5335 12.0809 28.1247C12.0273 27.7494 11.8061 27.5618 11.4241 27.5551C10.439 27.535 9.46053 27.5283 8.47538 27.5082C8.30783 27.5082 8.14029 27.4814 7.97945 27.4479C7.7717 27.4009 7.65107 27.2669 7.65777 27.0391C7.67787 26.5632 7.67117 26.0807 7.71808 25.6049C7.7851 24.928 8.37485 24.4388 9.05172 24.4321C9.93635 24.4321 10.8143 24.4254 11.6989 24.412C12.1747 24.4053 12.2082 24.3718 12.2149 23.8892C12.2216 23.2861 12.2283 22.6829 12.2149 22.0798C12.2015 21.4967 12.0809 21.3828 11.5045 21.3694C10.7003 21.356 9.89614 21.3627 9.09193 21.3493C8.85737 21.3426 8.62281 21.3292 8.39496 21.2689C8.1872 21.2153 8.05317 21.0946 8.14699 20.8199C8.20731 20.6523 8.1805 20.4446 8.1872 20.2569C8.20731 19.7476 8.22071 19.2316 8.25422 18.7222C8.27432 18.4408 8.42846 18.3335 8.73004 18.3402C9.84923 18.3737 10.9885 18.367 12.1412 18.367Z" fill="white"/>
<path d="M11.8537 9.0249C11.8671 9.05841 11.9006 9.09862 11.9006 9.13883C11.9073 9.99665 11.9274 10.8545 11.8872 11.7123C11.8805 11.853 11.6392 12.034 11.465 12.1077C10.8484 12.3691 10.2117 12.5768 9.60189 12.8449C8.24144 13.4413 7.08875 14.3327 6.09689 15.425C4.57561 17.0938 3.60386 19.044 3.25537 21.2756C2.75274 24.5126 3.48323 27.4546 5.47363 30.075C6.55931 31.5024 7.90635 32.6216 9.54157 33.3722C10.1849 33.6671 10.8685 33.8949 11.5387 34.1362C11.8068 34.23 11.9475 34.3842 11.9475 34.6723C11.9475 35.4229 11.9408 36.1668 11.9475 36.9174C11.9475 37.1654 11.847 37.3396 11.599 37.3731C11.3041 37.4133 10.9958 37.4804 10.7077 37.4267C9.29361 37.1587 7.98007 36.589 6.76036 35.8384C6.02988 35.3894 5.3329 34.8801 4.66943 34.3373C4.22712 33.9754 3.83842 33.5331 3.47652 33.0773C0.829349 29.7466 -0.477484 25.3235 0.159178 21.0813C0.655105 17.7907 2.08257 14.9693 4.46838 12.6572C5.58756 11.5716 6.87429 10.7137 8.30176 10.057C9.42764 9.53423 10.587 9.17234 11.8537 9.0249Z" fill="white"/>
<path d="M23.233 15.626C22.8577 15.6662 22.5964 15.5657 22.3752 15.2909C21.752 14.5336 20.9746 13.964 20.1637 13.4278C19.212 12.8046 18.1867 12.3623 17.1144 12.0205C16.9066 11.9535 16.7793 11.8462 16.7793 11.6251C16.786 10.9817 16.7659 10.3316 16.8195 9.68827C16.8664 9.07842 17.0876 8.95779 17.684 9.06502C19.1651 9.31968 20.5121 9.91613 21.7989 10.6466C22.1876 10.8678 22.5629 11.109 22.9181 11.3771C23.0655 11.4843 23.2263 11.6921 23.2263 11.8529C23.2464 13.1061 23.233 14.3527 23.233 15.626Z" fill="white"/>
<path d="M23.2271 30.6445C23.2338 30.7451 23.2472 30.8389 23.2472 30.9394C23.2539 31.9983 23.2472 33.0639 23.2606 34.1227C23.2673 34.5181 23.1131 34.7862 22.7847 35.0074C21.0423 36.1869 19.1457 36.9911 17.095 37.4334C16.8135 37.4937 16.6929 37.42 16.6929 37.1318C16.6996 36.4616 16.6661 35.7915 16.713 35.1213C16.7465 34.6388 17.0615 34.2836 17.5105 34.1428C18.7503 33.7675 19.9164 33.2381 20.9619 32.4808C21.5583 32.0519 22.0945 31.5426 22.6507 31.06C22.825 30.9126 22.9791 30.7451 23.1466 30.5842C23.1667 30.611 23.1936 30.6311 23.2271 30.6445Z" fill="white"/>
</svg>
