<svg width="226" height="81" viewBox="0 0 226 81" fill="none" xmlns="http://www.w3.org/2000/svg">
<path d="M21.8441 62.15C8.8441 62.15 2.2141 56.43 2.2141 47.265V46.875H9.2341V47.915C9.2341 53.115 12.2891 55.715 21.8441 55.715C30.1641 55.715 33.0891 53.895 33.0891 49.8C33.0891 46.03 30.8791 44.6 25.3541 43.56L14.6941 41.805C7.3491 40.505 2.1491 37.125 2.1491 29.975C2.1491 23.67 7.3491 17.3 20.8691 17.3C33.6091 17.3 39.3941 23.67 39.3941 32.185V32.575H32.4391V31.73C32.4391 26.4 29.2541 23.735 20.2191 23.735C12.2891 23.735 9.1691 25.685 9.1691 29.585C9.1691 33.355 11.3791 34.59 16.5141 35.695L27.1091 37.515C35.8191 39.075 40.1091 43.04 40.1091 49.41C40.1091 56.04 34.7141 62.15 21.8441 62.15ZM66.7378 61.5H59.7828V24.255H42.6228V17.95H83.8328V24.255H66.7378V61.5ZM150.638 62.15C137.638 62.15 131.008 56.43 131.008 47.265V46.875H138.028V47.915C138.028 53.115 141.083 55.715 150.638 55.715C158.958 55.715 161.883 53.895 161.883 49.8C161.883 46.03 159.673 44.6 154.148 43.56L143.488 41.805C136.143 40.505 130.943 37.125 130.943 29.975C130.943 23.67 136.143 17.3 149.663 17.3C162.403 17.3 168.188 23.67 168.188 32.185V32.575H161.233V31.73C161.233 26.4 158.048 23.735 149.013 23.735C141.083 23.735 137.963 25.685 137.963 29.585C137.963 33.355 140.173 34.59 145.308 35.695L155.903 37.515C164.613 39.075 168.903 43.04 168.903 49.41C168.903 56.04 163.508 62.15 150.638 62.15ZM180.907 61.5H173.887V17.95H180.907V61.5ZM205.672 62.15C192.672 62.15 186.042 56.43 186.042 47.265V46.875H193.062V47.915C193.062 53.115 196.117 55.715 205.672 55.715C213.992 55.715 216.917 53.895 216.917 49.8C216.917 46.03 214.707 44.6 209.182 43.56L198.522 41.805C191.177 40.505 185.977 37.125 185.977 29.975C185.977 23.67 191.177 17.3 204.697 17.3C217.437 17.3 223.222 23.67 223.222 32.185V32.575H216.267V31.73C216.267 26.4 213.082 23.735 204.047 23.735C196.117 23.735 192.997 25.685 192.997 29.585C192.997 33.355 195.207 34.59 200.342 35.695L210.937 37.515C219.647 39.075 223.937 43.04 223.937 49.41C223.937 56.04 218.542 62.15 205.672 62.15Z" fill="white"/>
<path fill-rule="evenodd" clip-rule="evenodd" d="M97.5939 19.5975L114.513 49.1767C114.608 49.3424 114.488 49.5486 114.297 49.5486H93.6439C93.5554 49.5486 93.4735 49.5958 93.429 49.6724L90.8199 54.1659C90.7241 54.3309 90.8423 54.5379 91.033 54.5393L123.724 54.7814C123.916 54.7829 124.037 54.5747 123.941 54.4083L103.506 19.124C103.46 19.0441 103.373 18.9964 103.281 19.0002L97.7994 19.2258C97.6132 19.2334 97.5014 19.4357 97.5939 19.5975ZM123.753 55.7653L89.4461 55.563C89.2554 55.5619 89.137 55.3553 89.2323 55.1902L99.5593 37.3033C99.6036 37.2266 99.6037 37.1321 99.5596 37.0553L96.9726 32.549C96.8776 32.3835 96.6393 32.3823 96.5427 32.5468L79.9876 60.7368C79.8902 60.9026 80.01 61.1115 80.2023 61.1112L120.983 61.0567C121.072 61.0566 121.154 61.0092 121.198 60.9324L123.966 56.1381C124.062 55.973 123.943 55.7664 123.753 55.7653ZM96.5621 30.7838L79.174 60.6264C79.0762 60.7941 78.8326 60.7901 78.7405 60.6193L76.0298 55.594C75.9889 55.5182 75.9902 55.4267 76.0331 55.352L96.3789 20.0031C96.4748 19.8364 96.7155 19.8371 96.8104 20.0044L112.946 48.4365C113.04 48.6025 112.92 48.8082 112.729 48.8077L107.533 48.795C107.445 48.7948 107.363 48.7475 107.319 48.6707L96.9921 30.7847C96.8967 30.6194 96.6582 30.6189 96.5621 30.7838ZM100.39 38.5L106.167 48.3207C106.265 48.4864 106.145 48.6953 105.953 48.6953H94.5148C94.3236 48.6953 94.204 48.4883 94.2995 48.3226L99.9609 38.5018C100.056 38.3368 100.294 38.3357 100.39 38.5Z" fill="white"/>
</svg>
